<svg id="visual" viewBox="0 0 900 300" width="900" height="300" xmlns="http://www.w3.org/2000/svg" xmlns:xlink="http://www.w3.org/1999/xlink" version="1.1"><rect x="0" y="0" width="900" height="300" fill="#222"></rect><path d="M0 153L13.7 152.3C27.3 151.7 54.7 150.3 82 152.5C109.3 154.7 136.7 160.3 163.8 160.2C191 160 218 154 245.2 157C272.3 160 299.7 172 327 175.3C354.3 178.7 381.7 173.3 409 174C436.3 174.7 463.7 181.3 491 185.2C518.3 189 545.7 190 573 189C600.3 188 627.7 185 654.8 186.7C682 188.3 709 194.7 736.2 194.7C763.3 194.7 790.7 188.3 818 188.5C845.3 188.7 872.7 195.3 886.3 198.7L900 202L900 0L886.3 0C872.7 0 845.3 0 818 0C790.7 0 763.3 0 736.2 0C709 0 682 0 654.8 0C627.7 0 600.3 0 573 0C545.7 0 518.3 0 491 0C463.7 0 436.3 0 409 0C381.7 0 354.3 0 327 0C299.7 0 272.3 0 245.2 0C218 0 191 0 163.8 0C136.7 0 109.3 0 82 0C54.7 0 27.3 0 13.7 0L0 0Z" fill="#201e1e"></path><path d="M0 113L13.7 113.8C27.3 114.7 54.7 116.3 82 116.3C109.3 116.3 136.7 114.7 163.8 111.2C191 107.7 218 102.3 245.2 103.7C272.3 105 299.7 113 327 120.2C354.3 127.3 381.7 133.7 409 132C436.3 130.3 463.7 120.7 491 118.5C518.3 116.3 545.7 121.7 573 123.3C600.3 125 627.7 123 654.8 122.8C682 122.7 709 124.3 736.2 125.8C763.3 127.3 790.7 128.7 818 124.3C845.3 120 872.7 110 886.3 105L900 100L900 0L886.3 0C872.7 0 845.3 0 818 0C790.7 0 763.3 0 736.2 0C709 0 682 0 654.8 0C627.7 0 600.3 0 573 0C545.7 0 518.3 0 491 0C463.7 0 436.3 0 409 0C381.7 0 354.3 0 327 0C299.7 0 272.3 0 245.2 0C218 0 191 0 163.8 0C136.7 0 109.3 0 82 0C54.7 0 27.3 0 13.7 0L0 0Z" fill="#181718"></path><path d="M0 85L13.7 84C27.3 83 54.7 81 82 76C109.3 71 136.7 63 163.8 61.8C191 60.7 218 66.3 245.2 70.2C272.3 74 299.7 76 327 77C354.3 78 381.7 78 409 77.2C436.3 76.3 463.7 74.7 491 70.7C518.3 66.7 545.7 60.3 573 58C600.3 55.7 627.7 57.3 654.8 58.7C682 60 709 61 736.2 60.2C763.3 59.3 790.7 56.7 818 57.8C845.3 59 872.7 64 886.3 66.5L900 69L900 0L886.3 0C872.7 0 845.3 0 818 0C790.7 0 763.3 0 736.2 0C709 0 682 0 654.8 0C627.7 0 600.3 0 573 0C545.7 0 518.3 0 491 0C463.7 0 436.3 0 409 0C381.7 0 354.3 0 327 0C299.7 0 272.3 0 245.2 0C218 0 191 0 163.8 0C136.7 0 109.3 0 82 0C54.7 0 27.3 0 13.7 0L0 0Z" fill="#0e0f10"></path></svg>